<svg viewBox="0 0 800 600" xmlns="http://www.w3.org/2000/svg">
  <defs>
    <linearGradient id="mf-sky" x1="0" y1="0" x2="0" y2="1">
      <stop offset="0%" stop-color="#eaf6ec"/>
      <stop offset="100%" stop-color="#cdeccf"/>
    </linearGradient>
    <linearGradient id="mf-ground" x1="0" y1="0" x2="0" y2="1">
      <stop offset="0%" stop-color="#7fb85f"/>
      <stop offset="100%" stop-color="#4c8a3b"/>
    </linearGradient>
    <linearGradient id="mf-barn" x1="0" y1="0" x2="0" y2="1">
      <stop offset="0%" stop-color="#c2513f"/>
      <stop offset="100%" stop-color="#9c3d2f"/>
    </linearGradient>
  </defs>

  <rect width="800" height="600" fill="url(#mf-sky)"/>
  <circle cx="660" cy="110" r="65" fill="#fdd873" opacity="0.9"/>
  <rect x="0" y="400" width="800" height="200" fill="url(#mf-ground)"/>

  <g stroke="#3a6e2c" stroke-width="5" opacity="0.35">
    <line x1="0" y1="430" x2="330" y2="430"/>
    <line x1="0" y1="470" x2="330" y2="470"/>
    <line x1="0" y1="510" x2="330" y2="510"/>
    <line x1="0" y1="550" x2="330" y2="550"/>
  </g>

  <g fill="#2f6b2a">
    <g transform="translate(80,470) scale(0.75)">
      <path d="M0 60 C -10 20, -10 -10, 0 -50 C 10 -10, 10 20, 0 60 Z"/>
      <path d="M0 30 C -30 20, -45 -5, -50 -30 C -20 -25, -5 -5, 0 30 Z" fill="#3d8a35"/>
      <path d="M0 30 C 30 20, 45 -5, 50 -30 C 20 -25, 5 -5, 0 30 Z" fill="#3d8a35"/>
    </g>
    <g transform="translate(190,500) scale(0.65)">
      <path d="M0 60 C -10 20, -10 -10, 0 -50 C 10 -10, 10 20, 0 60 Z"/>
      <path d="M0 30 C -30 20, -45 -5, -50 -30 C -20 -25, -5 -5, 0 30 Z" fill="#3d8a35"/>
      <path d="M0 30 C 30 20, 45 -5, 50 -30 C 20 -25, 5 -5, 0 30 Z" fill="#3d8a35"/>
    </g>
    <g transform="translate(280,455) scale(0.7)">
      <path d="M0 60 C -10 20, -10 -10, 0 -50 C 10 -10, 10 20, 0 60 Z"/>
      <path d="M0 30 C -30 20, -45 -5, -50 -30 C -20 -25, -5 -5, 0 30 Z" fill="#3d8a35"/>
      <path d="M0 30 C 30 20, 45 -5, 50 -30 C 20 -25, 5 -5, 0 30 Z" fill="#3d8a35"/>
    </g>
  </g>

  <g transform="translate(430,330)">
    <rect x="0" y="70" width="180" height="120" fill="url(#mf-barn)"/>
    <polygon points="-10,70 90,10 190,70" fill="#7c2d21"/>
    <rect x="80" y="130" width="40" height="60" fill="#5a2015"/>
    <rect x="20" y="100" width="30" height="30" fill="#f4e3b2"/>
    <rect x="130" y="100" width="30" height="30" fill="#f4e3b2"/>
    <rect x="70" y="20" width="20" height="35" fill="#5a2015"/>
  </g>

  <g transform="translate(640,300)">
    <rect x="0" y="0" width="60" height="150" rx="28" fill="#c9ccd1"/>
    <ellipse cx="30" cy="0" rx="30" ry="16" fill="#e4e6ea"/>
    <polygon points="0,-10 30,-45 60,-10" fill="#9aa0aa"/>
  </g>

  <g stroke="#7a5230" stroke-width="6" opacity="0.85">
    <line x1="30" y1="560" x2="30" y2="500"/>
    <line x1="90" y1="560" x2="90" y2="500"/>
    <line x1="150" y1="560" x2="150" y2="500"/>
    <line x1="20" y1="515" x2="160" y2="515"/>
    <line x1="20" y1="545" x2="160" y2="545"/>
  </g>

  <g transform="translate(240,470)">
    <ellipse cx="0" cy="40" rx="70" ry="40" fill="#f7f3ec"/>
    <ellipse cx="-25" cy="20" rx="18" ry="14" fill="#3d3833"/>
    <ellipse cx="30" cy="55" rx="20" ry="16" fill="#3d3833"/>
    <circle cx="-60" cy="15" r="26" fill="#f7f3ec"/>
    <ellipse cx="-72" cy="18" rx="8" ry="6" fill="#3d3833"/>
    <circle cx="-70" cy="6" r="4" fill="#2b2723"/>
    <path d="M-72 -8 l-6 -12 M-52 -10 l6 -12" stroke="#3d3833" stroke-width="5" fill="none" stroke-linecap="round"/>
    <g fill="#3d3833">
      <rect x="-45" y="60" width="10" height="26" rx="4"/>
      <rect x="-15" y="65" width="10" height="26" rx="4"/>
      <rect x="15" y="65" width="10" height="26" rx="4"/>
      <rect x="45" y="60" width="10" height="26" rx="4"/>
    </g>
  </g>

  <g transform="translate(560,530)">
    <ellipse cx="0" cy="0" rx="22" ry="17" fill="#fefefe"/>
    <circle cx="18" cy="-10" r="10" fill="#fefefe"/>
    <polygon points="27,-10 38,-6 27,-2" fill="#e8a13b"/>
    <path d="M12 -18 q4 -8 8 0" fill="#c2513f"/>
  </g>
  <g transform="translate(600,545) scale(0.8)">
    <ellipse cx="0" cy="0" rx="22" ry="17" fill="#f4e3b2"/>
    <circle cx="18" cy="-10" r="10" fill="#f4e3b2"/>
    <polygon points="27,-10 38,-6 27,-2" fill="#e8a13b"/>
  </g>
</svg>
