<svg viewBox="0 0 800 600" xmlns="http://www.w3.org/2000/svg">
  <defs>
    <linearGradient id="pp-sky" x1="0" y1="0" x2="0" y2="1">
      <stop offset="0%" stop-color="#eaf6ec"/>
      <stop offset="100%" stop-color="#cdeccf"/>
    </linearGradient>
    <linearGradient id="pp-ground" x1="0" y1="0" x2="0" y2="1">
      <stop offset="0%" stop-color="#6fae52"/>
      <stop offset="100%" stop-color="#4c8a3b"/>
    </linearGradient>
  </defs>
  <rect width="800" height="600" fill="url(#pp-sky)"/>
  <rect x="0" y="380" width="800" height="220" fill="url(#pp-ground)"/>
  <g stroke="#3a6e2c" stroke-width="6" opacity="0.5">
    <line x1="0" y1="420" x2="800" y2="420"/>
    <line x1="0" y1="470" x2="800" y2="470"/>
    <line x1="0" y1="520" x2="800" y2="520"/>
  </g>
  <g fill="#2f6b2a">
    <g transform="translate(120,420)">
      <path d="M0 60 C -10 20, -10 -10, 0 -50 C 10 -10, 10 20, 0 60 Z"/>
      <path d="M0 30 C -30 20, -45 -5, -50 -30 C -20 -25, -5 -5, 0 30 Z" fill="#3d8a35"/>
      <path d="M0 30 C 30 20, 45 -5, 50 -30 C 20 -25, 5 -5, 0 30 Z" fill="#3d8a35"/>
    </g>
    <g transform="translate(260,450) scale(0.8)">
      <path d="M0 60 C -10 20, -10 -10, 0 -50 C 10 -10, 10 20, 0 60 Z"/>
      <path d="M0 30 C -30 20, -45 -5, -50 -30 C -20 -25, -5 -5, 0 30 Z" fill="#3d8a35"/>
      <path d="M0 30 C 30 20, 45 -5, 50 -30 C 20 -25, 5 -5, 0 30 Z" fill="#3d8a35"/>
    </g>
    <g transform="translate(400,410) scale(1.1)">
      <path d="M0 60 C -10 20, -10 -10, 0 -50 C 10 -10, 10 20, 0 60 Z"/>
      <path d="M0 30 C -30 20, -45 -5, -50 -30 C -20 -25, -5 -5, 0 30 Z" fill="#3d8a35"/>
      <path d="M0 30 C 30 20, 45 -5, 50 -30 C 20 -25, 5 -5, 0 30 Z" fill="#3d8a35"/>
    </g>
    <g transform="translate(540,460) scale(0.85)">
      <path d="M0 60 C -10 20, -10 -10, 0 -50 C 10 -10, 10 20, 0 60 Z"/>
      <path d="M0 30 C -30 20, -45 -5, -50 -30 C -20 -25, -5 -5, 0 30 Z" fill="#3d8a35"/>
      <path d="M0 30 C 30 20, 45 -5, 50 -30 C 20 -25, 5 -5, 0 30 Z" fill="#3d8a35"/>
    </g>
    <g transform="translate(670,420) scale(1.05)">
      <path d="M0 60 C -10 20, -10 -10, 0 -50 C 10 -10, 10 20, 0 60 Z"/>
      <path d="M0 30 C -30 20, -45 -5, -50 -30 C -20 -25, -5 -5, 0 30 Z" fill="#3d8a35"/>
      <path d="M0 30 C 30 20, 45 -5, 50 -30 C 20 -25, 5 -5, 0 30 Z" fill="#3d8a35"/>
    </g>
  </g>
  <circle cx="650" cy="110" r="70" fill="#fdd873" opacity="0.9"/>
</svg>
